<svg version="1.1" id="Layer_1" xmlns="http://www.w3.org/2000/svg" xmlns:xlink="http://www.w3.org/1999/xlink" x="0px" y="0px" viewBox="0 0 24 24" style="enable-background:new 0 0 512 512;" xml:space="preserve" width="24" height="24"><path style="fill:#EFF2FA;" d="M23.172 21.517H0.828C0.37 21.517 0 21.147 0 20.69V1.655c0 -0.457 0.37 -0.828 0.828 -0.828h22.345c0.457 0 0.828 0.37 0.828 0.828v19.034C24 21.147 23.629 21.517 23.172 21.517z"/><path style="fill:#E4EAF6;" d="M17.728 21.517c0.565 -0.975 0.893 -2.103 0.893 -3.31c0 -3.656 -2.964 -6.621 -6.621 -6.621s-6.621 2.964 -6.621 6.621c0 1.207 0.328 2.336 0.893 3.31H17.728z"/><path style="fill:#FF6464;" d="M24 4.966H0V1.655c0 -0.457 0.37 -0.828 0.828 -0.828h22.345c0.457 0 0.828 0.37 0.828 0.828V4.966z"/><path y="105.931" style="fill:#E4EAF6;" width="512" height="17.655" d="M0 4.966H24V5.793H0V4.966z"/><path style="fill:#D2555A;" cx="75.034" cy="57.379" r="26.483" d="M4.759 2.69A1.241 1.241 0 0 1 3.517 3.931A1.241 1.241 0 0 1 2.276 2.69A1.241 1.241 0 0 1 4.759 2.69z"/><path style="fill:#C7CFE2;" d="M3.517 3.31L3.517 3.31c-0.343 0 -0.621 -0.278 -0.621 -0.621V0.621C2.897 0.278 3.174 0 3.517 0l0 0c0.343 0 0.621 0.278 0.621 0.621v2.069C4.138 3.032 3.86 3.31 3.517 3.31z"/><path style="fill:#AFB9D2;" d="M3.517 2.069c-0.343 0 -0.621 -0.278 -0.621 -0.621v1.241c0 0.343 0.278 0.621 0.621 0.621c0.343 0 0.621 -0.278 0.621 -0.621V1.448C4.138 1.791 3.86 2.069 3.517 2.069z"/><path style="fill:#D2555A;" cx="436.966" cy="57.379" r="26.483" d="M21.724 2.69A1.241 1.241 0 0 1 20.483 3.931A1.241 1.241 0 0 1 19.241 2.69A1.241 1.241 0 0 1 21.724 2.69z"/><path style="fill:#C7CFE2;" d="M20.483 3.31L20.483 3.31c-0.343 0 -0.621 -0.278 -0.621 -0.621V0.621C19.862 0.278 20.14 0 20.483 0l0 0c0.343 0 0.621 0.278 0.621 0.621v2.069C21.103 3.032 20.826 3.31 20.483 3.31z"/><path style="fill:#AFB9D2;" d="M20.483 2.069c-0.343 0 -0.621 -0.278 -0.621 -0.621v1.241c0 0.343 0.278 0.621 0.621 0.621s0.621 -0.278 0.621 -0.621V1.448C21.103 1.791 20.826 2.069 20.483 2.069z"/><g><path style="fill:#E4EAF6;" d="M4.552 10.759h-1.655c-0.229 0 -0.414 -0.185 -0.414 -0.414v-1.241c0 -0.229 0.185 -0.414 0.414 -0.414h1.655c0.229 0 0.414 0.185 0.414 0.414v1.241C4.966 10.573 4.78 10.759 4.552 10.759z"/><path style="fill:#E4EAF6;" d="M7.862 10.759h-1.655c-0.229 0 -0.414 -0.185 -0.414 -0.414v-1.241c0 -0.229 0.185 -0.414 0.414 -0.414h1.655c0.229 0 0.414 0.185 0.414 0.414v1.241C8.276 10.573 8.091 10.759 7.862 10.759z"/><path style="fill:#E4EAF6;" d="M11.172 10.759h-1.655c-0.229 0 -0.414 -0.185 -0.414 -0.414v-1.241c0 -0.229 0.185 -0.414 0.414 -0.414h1.655c0.229 0 0.414 0.185 0.414 0.414v1.241C11.586 10.573 11.401 10.759 11.172 10.759z"/><path style="fill:#E4EAF6;" d="M14.483 10.759h-1.655c-0.229 0 -0.414 -0.185 -0.414 -0.414v-1.241c0 -0.229 0.185 -0.414 0.414 -0.414h1.655c0.229 0 0.414 0.185 0.414 0.414v1.241C14.897 10.573 14.711 10.759 14.483 10.759z"/></g><g><path style="fill:#D7DEED;" d="M17.793 10.759h-1.655c-0.229 0 -0.414 -0.185 -0.414 -0.414v-1.241c0 -0.229 0.185 -0.414 0.414 -0.414h1.655c0.229 0 0.414 0.185 0.414 0.414v1.241C18.207 10.573 18.022 10.759 17.793 10.759z"/><path style="fill:#D7DEED;" d="M21.103 10.759h-1.655c-0.229 0 -0.414 -0.185 -0.414 -0.414v-1.241c0 -0.229 0.185 -0.414 0.414 -0.414h1.655c0.229 0 0.414 0.185 0.414 0.414v1.241C21.517 10.573 21.332 10.759 21.103 10.759z"/></g><g><path style="fill:#C7CFE2;" d="M4.552 7.862h-1.655c-0.229 0 -0.414 -0.185 -0.414 -0.414l0 0c0 -0.229 0.185 -0.414 0.414 -0.414h1.655c0.229 0 0.414 0.185 0.414 0.414l0 0C4.966 7.677 4.78 7.862 4.552 7.862z"/><path style="fill:#C7CFE2;" d="M7.862 7.862h-1.655c-0.229 0 -0.414 -0.185 -0.414 -0.414l0 0c0 -0.229 0.185 -0.414 0.414 -0.414h1.655c0.229 0 0.414 0.185 0.414 0.414l0 0C8.276 7.677 8.091 7.862 7.862 7.862z"/><path style="fill:#C7CFE2;" d="M11.172 7.862h-1.655c-0.229 0 -0.414 -0.185 -0.414 -0.414l0 0c0 -0.229 0.185 -0.414 0.414 -0.414h1.655c0.229 0 0.414 0.185 0.414 0.414l0 0C11.586 7.677 11.401 7.862 11.172 7.862z"/><path style="fill:#C7CFE2;" d="M14.483 7.862h-1.655c-0.229 0 -0.414 -0.185 -0.414 -0.414l0 0c0 -0.229 0.185 -0.414 0.414 -0.414h1.655c0.229 0 0.414 0.185 0.414 0.414l0 0C14.897 7.677 14.711 7.862 14.483 7.862z"/></g><g><path style="fill:#FF6464;" d="M17.793 7.862h-1.655c-0.229 0 -0.414 -0.185 -0.414 -0.414l0 0c0 -0.229 0.185 -0.414 0.414 -0.414h1.655c0.229 0 0.414 0.185 0.414 0.414l0 0C18.207 7.677 18.022 7.862 17.793 7.862z"/><path style="fill:#FF6464;" d="M21.103 7.862h-1.655c-0.229 0 -0.414 -0.185 -0.414 -0.414l0 0c0 -0.229 0.185 -0.414 0.414 -0.414h1.655c0.229 0 0.414 0.185 0.414 0.414l0 0C21.517 7.677 21.332 7.862 21.103 7.862z"/></g><g><path style="fill:#E4EAF6;" d="M4.552 13.655h-1.655c-0.229 0 -0.414 -0.185 -0.414 -0.414V12c0 -0.229 0.185 -0.414 0.414 -0.414h1.655c0.229 0 0.414 0.185 0.414 0.414v1.241C4.966 13.47 4.78 13.655 4.552 13.655z"/><path style="fill:#E4EAF6;" d="M7.862 13.655h-1.655c-0.229 0 -0.414 -0.185 -0.414 -0.414V12c0 -0.229 0.185 -0.414 0.414 -0.414h1.655c0.229 0 0.414 0.185 0.414 0.414v1.241C8.276 13.47 8.091 13.655 7.862 13.655z"/><path style="fill:#E4EAF6;" d="M11.172 13.655h-1.655c-0.229 0 -0.414 -0.185 -0.414 -0.414V12c0 -0.229 0.185 -0.414 0.414 -0.414h1.655c0.229 0 0.414 0.185 0.414 0.414v1.241C11.586 13.47 11.401 13.655 11.172 13.655z"/><path style="fill:#E4EAF6;" d="M14.483 13.655h-1.655c-0.229 0 -0.414 -0.185 -0.414 -0.414V12c0 -0.229 0.185 -0.414 0.414 -0.414h1.655c0.229 0 0.414 0.185 0.414 0.414v1.241C14.897 13.47 14.711 13.655 14.483 13.655z"/></g><g><path style="fill:#D7DEED;" d="M17.793 13.655h-1.655c-0.229 0 -0.414 -0.185 -0.414 -0.414V12c0 -0.229 0.185 -0.414 0.414 -0.414h1.655c0.229 0 0.414 0.185 0.414 0.414v1.241C18.207 13.47 18.022 13.655 17.793 13.655z"/><path style="fill:#D7DEED;" d="M21.103 13.655h-1.655c-0.229 0 -0.414 -0.185 -0.414 -0.414V12c0 -0.229 0.185 -0.414 0.414 -0.414h1.655c0.229 0 0.414 0.185 0.414 0.414v1.241C21.517 13.47 21.332 13.655 21.103 13.655z"/></g><g><path style="fill:#E4EAF6;" d="M4.552 16.552h-1.655c-0.229 0 -0.414 -0.185 -0.414 -0.414v-1.241c0 -0.229 0.185 -0.414 0.414 -0.414h1.655c0.229 0 0.414 0.185 0.414 0.414v1.241C4.966 16.366 4.78 16.552 4.552 16.552z"/><path style="fill:#E4EAF6;" d="M7.862 16.552h-1.655c-0.229 0 -0.414 -0.185 -0.414 -0.414v-1.241c0 -0.229 0.185 -0.414 0.414 -0.414h1.655c0.229 0 0.414 0.185 0.414 0.414v1.241C8.276 16.366 8.091 16.552 7.862 16.552z"/><path style="fill:#E4EAF6;" d="M11.172 16.552h-1.655c-0.229 0 -0.414 -0.185 -0.414 -0.414v-1.241c0 -0.229 0.185 -0.414 0.414 -0.414h1.655c0.229 0 0.414 0.185 0.414 0.414v1.241C11.586 16.366 11.401 16.552 11.172 16.552z"/><path style="fill:#E4EAF6;" d="M14.483 16.552h-1.655c-0.229 0 -0.414 -0.185 -0.414 -0.414v-1.241c0 -0.229 0.185 -0.414 0.414 -0.414h1.655c0.229 0 0.414 0.185 0.414 0.414v1.241C14.897 16.366 14.711 16.552 14.483 16.552z"/></g><g><path style="fill:#D7DEED;" d="M17.793 16.552h-1.655c-0.229 0 -0.414 -0.185 -0.414 -0.414v-1.241c0 -0.229 0.185 -0.414 0.414 -0.414h1.655c0.229 0 0.414 0.185 0.414 0.414v1.241C18.207 16.366 18.022 16.552 17.793 16.552z"/><path style="fill:#D7DEED;" d="M21.103 16.552h-1.655c-0.229 0 -0.414 -0.185 -0.414 -0.414v-1.241c0 -0.229 0.185 -0.414 0.414 -0.414h1.655c0.229 0 0.414 0.185 0.414 0.414v1.241C21.517 16.366 21.332 16.552 21.103 16.552z"/></g><g><path style="fill:#E4EAF6;" d="M4.552 19.448h-1.655c-0.229 0 -0.414 -0.185 -0.414 -0.414v-1.241c0 -0.229 0.185 -0.414 0.414 -0.414h1.655c0.229 0 0.414 0.185 0.414 0.414v1.241C4.966 19.263 4.78 19.448 4.552 19.448z"/><path style="fill:#E4EAF6;" d="M7.862 19.448h-1.655c-0.229 0 -0.414 -0.185 -0.414 -0.414v-1.241c0 -0.229 0.185 -0.414 0.414 -0.414h1.655c0.229 0 0.414 0.185 0.414 0.414v1.241C8.276 19.263 8.091 19.448 7.862 19.448z"/><path style="fill:#E4EAF6;" d="M11.172 19.448h-1.655c-0.229 0 -0.414 -0.185 -0.414 -0.414v-1.241c0 -0.229 0.185 -0.414 0.414 -0.414h1.655c0.229 0 0.414 0.185 0.414 0.414v1.241C11.586 19.263 11.401 19.448 11.172 19.448z"/><path style="fill:#E4EAF6;" d="M14.483 19.448h-1.655c-0.229 0 -0.414 -0.185 -0.414 -0.414v-1.241c0 -0.229 0.185 -0.414 0.414 -0.414h1.655c0.229 0 0.414 0.185 0.414 0.414v1.241C14.897 19.263 14.711 19.448 14.483 19.448z"/></g><g><path style="fill:#D7DEED;" d="M17.793 19.448h-1.655c-0.229 0 -0.414 -0.185 -0.414 -0.414v-1.241c0 -0.229 0.185 -0.414 0.414 -0.414h1.655c0.229 0 0.414 0.185 0.414 0.414v1.241C18.207 19.263 18.022 19.448 17.793 19.448z"/><path style="fill:#D7DEED;" d="M21.103 19.448h-1.655c-0.229 0 -0.414 -0.185 -0.414 -0.414v-1.241c0 -0.229 0.185 -0.414 0.414 -0.414h1.655c0.229 0 0.414 0.185 0.414 0.414v1.241C21.517 19.263 21.332 19.448 21.103 19.448z"/></g><path style="fill:#AFB9D2;" cx="256" cy="388.414" r="123.586" d="M17.793 18.207A5.793 5.793 0 0 1 12 24A5.793 5.793 0 0 1 6.207 18.207A5.793 5.793 0 0 1 17.793 18.207z"/><path style="fill:#FFFFFF;" cx="256" cy="388.414" r="105.931" d="M16.966 18.207A4.966 4.966 0 0 1 12 23.172A4.966 4.966 0 0 1 7.034 18.207A4.966 4.966 0 0 1 16.966 18.207z"/><path style="fill:#EFF2FA;" cx="256" cy="388.414" r="61.793" d="M14.897 18.207A2.897 2.897 0 0 1 12 21.103A2.897 2.897 0 0 1 9.103 18.207A2.897 2.897 0 0 1 14.897 18.207z"/><g><path style="fill:#707487;" d="M12 12.828L12 12.828c-0.229 0 -0.414 0.185 -0.414 0.414v0.414c0 0.229 0.185 0.414 0.414 0.414l0 0c0.229 0 0.414 -0.185 0.414 -0.414v-0.414C12.414 13.013 12.229 12.828 12 12.828z"/><path style="fill:#707487;" d="M12 22.345L12 22.345c-0.229 0 -0.414 0.185 -0.414 0.414v0.414c0 0.229 0.185 0.414 0.414 0.414l0 0c0.229 0 0.414 -0.185 0.414 -0.414v-0.414C12.414 22.53 12.229 22.345 12 22.345z"/><path style="fill:#707487;" d="M17.379 18.207L17.379 18.207c0 -0.229 -0.185 -0.414 -0.414 -0.414h-0.414c-0.229 0 -0.414 0.185 -0.414 0.414l0 0c0 0.229 0.185 0.414 0.414 0.414h0.414C17.194 18.621 17.379 18.435 17.379 18.207z"/><path style="fill:#707487;" d="M7.862 18.207L7.862 18.207c0 -0.229 -0.185 -0.414 -0.414 -0.414h-0.414c-0.229 0 -0.414 0.185 -0.414 0.414l0 0c0 0.229 0.185 0.414 0.414 0.414h0.414C7.677 18.621 7.862 18.435 7.862 18.207z"/></g><g><path style="fill:#5B5D6E;" d="M12 19.862L12 19.862c-0.229 0 -0.414 -0.185 -0.414 -0.414v-4.138c0 -0.229 0.185 -0.414 0.414 -0.414l0 0c0.229 0 0.414 0.185 0.414 0.414v4.138C12.414 19.677 12.229 19.862 12 19.862z"/><path style="fill:#5B5D6E;" d="M10.345 18.207L10.345 18.207c0 -0.229 0.185 -0.414 0.414 -0.414h4.138c0.229 0 0.414 0.185 0.414 0.414l0 0c0 0.229 -0.185 0.414 -0.414 0.414h-4.138C10.53 18.621 10.345 18.435 10.345 18.207z"/></g><path style="fill:#C7CFE2;" cx="256" cy="388.414" r="17.655" d="M12.828 18.207A0.828 0.828 0 0 1 12 19.034A0.828 0.828 0 0 1 11.172 18.207A0.828 0.828 0 0 1 12.828 18.207z"/><g/><g/><g/><g/><g/><g/><g/><g/><g/><g/><g/><g/><g/><g/><g/></svg>