<svg version="1.1" id="Capa_1" xmlns="http://www.w3.org/2000/svg" xmlns:xlink="http://www.w3.org/1999/xlink" x="0px" y="0px" width="24px" height="24px" viewBox="0 0 24 24" style="enable-background:new 0 0 601.96 601.96;" xml:space="preserve"><g><path d="M6.505 4.294l-0.3 0.447c-0.2 -0.532 -0.451 -1.057 -0.808 -1.498c-0.481 -0.598 -1.137 -1.059 -1.913 -1.161c-0.764 -0.1 -1.584 0.081 -2.191 0.571C0.034 3.67 -0.09 5.451 0.041 6.947c0.066 0.761 0.229 1.52 0.471 2.245l1.52 -0.532c-0.102 -0.31 -0.19 -0.622 -0.261 -0.942c-0.132 -0.691 -0.183 -1.393 -0.149 -2.096c0.027 -0.329 0.081 -0.656 0.178 -0.971c0.059 -0.151 0.129 -0.298 0.212 -0.437c0.063 -0.085 0.134 -0.168 0.21 -0.244c0.078 -0.061 0.161 -0.117 0.246 -0.166c0.107 -0.046 0.217 -0.085 0.332 -0.115c0.117 -0.017 0.237 -0.024 0.354 -0.024c0.105 0.012 0.21 0.034 0.312 0.063c0.095 0.039 0.188 0.085 0.276 0.139c0.112 0.083 0.215 0.176 0.31 0.276c0.159 0.195 0.293 0.405 0.412 0.627c0.193 0.405 0.339 0.832 0.473 1.259c0.044 0.139 0.085 0.276 0.124 0.415L0.576 13.12l5.929 8.826H24v-17.651H6.505zM6.503 12.876c0.134 0 0.244 0.11 0.244 0.244s-0.11 0.244 -0.244 0.244c-0.134 0 -0.244 -0.11 -0.244 -0.244S6.368 12.876 6.503 12.876zM22.341 20.286H7.388L2.574 13.12l2.957 -4.402c0.115 0.893 0.161 1.793 0.137 2.694c-0.632 0.31 -1.066 0.959 -1.066 1.708c0 1.049 0.854 1.903 1.903 1.903s1.903 -0.854 1.903 -1.903c0 -0.778 -0.471 -1.449 -1.14 -1.742c0.037 -1.33 -0.061 -2.655 -0.325 -3.967c-0.039 -0.2 -0.083 -0.4 -0.129 -0.598l0.576 -0.856h14.953v14.33H22.341zM11.158 16.504L19.1 8.562l1.174 1.174L12.332 17.678L11.158 16.504zM13.037 12.566c1.171 0 2.123 -0.952 2.123 -2.123s-0.952 -2.123 -2.123 -2.123s-2.123 0.952 -2.123 2.123S11.868 12.566 13.037 12.566zM13.037 9.977c0.256 0 0.464 0.207 0.464 0.464c0 0.256 -0.207 0.464 -0.464 0.464s-0.464 -0.207 -0.464 -0.464C12.573 10.184 12.781 9.977 13.037 9.977zM18.393 13.674c-1.171 0 -2.123 0.952 -2.123 2.123s0.952 2.123 2.123 2.123s2.123 -0.952 2.123 -2.123S19.564 13.674 18.393 13.674zM18.393 16.263c-0.256 0 -0.464 -0.207 -0.464 -0.464s0.207 -0.464 0.464 -0.464s0.464 0.207 0.464 0.464S18.649 16.263 18.393 16.263z"/></g><g/><g/><g/><g/><g/><g/><g/><g/><g/><g/><g/><g/><g/><g/><g/></svg>