<svg version="1.1" id="Capa_1" xmlns="http://www.w3.org/2000/svg" xmlns:xlink="http://www.w3.org/1999/xlink" x="0px" y="0px" viewBox="0 0 24 24" style="enable-background:new 0 0 339 339" xml:space="preserve" width="24" height="24"><g><path d="M15.788 10.875c-1.024 0 -1.856 0.833 -1.856 1.856c0 0.215 0.174 0.389 0.389 0.389c0.215 0 0.389 -0.174 0.389 -0.389c0 -0.594 0.483 -1.078 1.078 -1.078s1.078 0.483 1.078 1.078c0 0.215 0.174 0.389 0.389 0.389c0.215 0 0.389 -0.174 0.389 -0.389C17.644 11.708 16.811 10.875 15.788 10.875z"/><path d="M8.354 11.654c0.594 0 1.078 0.483 1.078 1.078c0 0.215 0.174 0.389 0.389 0.389c0.215 0 0.389 -0.174 0.389 -0.389c0 -1.024 -0.833 -1.856 -1.856 -1.856s-1.856 0.833 -1.856 1.856c0 0.215 0.174 0.389 0.389 0.389c0.215 0 0.389 -0.174 0.389 -0.389C7.276 12.138 7.76 11.654 8.354 11.654z"/><path d="M24 13.688c0 -1.16 -0.89 -2.115 -2.023 -2.22c-0.719 -3.16 -2.916 -5.764 -5.822 -7.046c0.689 -0.4 1.154 -1.145 1.154 -1.997c0 -1.272 -1.035 -2.307 -2.307 -2.307c-0.808 0 -1.52 0.418 -1.932 1.049c-0.247 -0.273 -0.603 -0.446 -0.999 -0.446c-0.396 0 -0.752 0.173 -0.999 0.446c-0.412 -0.631 -1.124 -1.049 -1.932 -1.049c-1.272 0 -2.307 1.035 -2.307 2.307c0 0.852 0.465 1.598 1.154 1.997c-2.904 1.28 -5.099 3.881 -5.821 7.037C0.966 11.493 0 12.479 0 13.688c0 1.203 0.958 2.186 2.151 2.228c1.005 4.551 5.071 7.967 9.92 7.967c4.852 0 8.92 -3.42 9.922 -7.976C23.118 15.794 24 14.842 24 13.688zM15.002 0.896c0.843 0 1.528 0.686 1.528 1.528s-0.686 1.528 -1.528 1.528c-0.064 0 -0.127 -0.005 -0.188 -0.013c-0.127 -0.036 -0.255 -0.069 -0.384 -0.1c-0.56 -0.227 -0.956 -0.776 -0.956 -1.416C13.474 1.582 14.159 0.896 15.002 0.896zM11.501 2.069c0 -0.314 0.256 -0.569 0.57 -0.569c0.314 0 0.569 0.255 0.569 0.569V2.781c0 0.314 -0.255 0.569 -0.569 0.569c-0.314 0 -0.57 -0.255 -0.57 -0.569V2.069zM9.14 3.953c-0.843 0 -1.528 -0.686 -1.528 -1.528s0.686 -1.528 1.528 -1.528c0.843 0 1.528 0.686 1.528 1.528c0 0.64 -0.396 1.189 -0.956 1.416c-0.129 0.031 -0.257 0.064 -0.384 0.099C9.266 3.948 9.203 3.953 9.14 3.953zM0.779 13.688c0 -0.728 0.539 -1.331 1.239 -1.434C1.948 12.734 1.912 13.224 1.912 13.723c0 0.474 0.033 0.94 0.096 1.397C1.313 15.013 0.779 14.412 0.779 13.688zM12.071 23.104c-5.172 0 -9.381 -4.208 -9.381 -9.381c0 -4.274 2.874 -7.89 6.79 -9.016c0.163 -0.024 0.321 -0.066 0.471 -0.122c0.681 -0.158 1.391 -0.242 2.12 -0.242c0.729 0 1.438 0.084 2.12 0.241c0.15 0.057 0.308 0.098 0.471 0.122C18.578 5.833 21.451 9.449 21.451 13.723C21.451 18.895 17.243 23.104 12.071 23.104zM22.138 15.09c0.06 -0.447 0.092 -0.903 0.092 -1.367c0 -0.489 -0.035 -0.97 -0.103 -1.44c0.628 0.16 1.094 0.728 1.094 1.405C23.221 14.361 22.76 14.926 22.138 15.09z"/><path d="M16.243 16.72c-0.202 -0.073 -0.425 0.031 -0.499 0.234c-0.568 1.571 -2.073 2.626 -3.744 2.626c-1.671 0 -3.176 -1.055 -3.744 -2.626c-0.073 -0.202 -0.297 -0.307 -0.499 -0.234c-0.202 0.073 -0.307 0.296 -0.234 0.499c0.68 1.878 2.478 3.14 4.476 3.14c1.998 0 3.797 -1.262 4.476 -3.14C16.549 17.016 16.445 16.793 16.243 16.72z"/></g><g/><g/><g/><g/><g/><g/><g/><g/><g/><g/><g/><g/><g/><g/><g/></svg>