<svg version="1.1" id="Layer_1" xmlns="http://www.w3.org/2000/svg" xmlns:xlink="http://www.w3.org/1999/xlink" x="0px" y="0px" viewBox="0 0 24 24" style="enable-background:new 0 0 512 512;" xml:space="preserve" width="24" height="24"><g><g><path d="M17.737 1.912c-2.532 0 -4.759 1.526 -5.737 3.747c-0.978 -2.222 -3.205 -3.747 -5.737 -3.747C2.81 1.912 0 4.722 0 8.175c0 3.405 3.862 6.719 5.717 8.312l0.017 0.014c1.589 1.364 5.895 5.415 5.938 5.456c0.092 0.087 0.21 0.13 0.328 0.13c0.118 0 0.236 -0.043 0.328 -0.13c0.043 -0.041 4.35 -4.092 5.938 -5.456l0.017 -0.014C20.138 14.895 24 11.58 24 8.175C24 4.722 21.19 1.912 17.737 1.912zM17.66 15.762l-0.017 0.014C16.298 16.931 13.044 19.975 12 20.954c-1.044 -0.979 -4.298 -4.023 -5.643 -5.177l-0.017 -0.014C4.729 14.379 0.956 11.141 0.956 8.175c0 -2.926 2.381 -5.307 5.307 -5.307c2.659 0 4.922 1.985 5.263 4.618c0.031 0.238 0.234 0.417 0.474 0.417c0.24 0 0.443 -0.178 0.474 -0.417c0.341 -2.633 2.604 -4.618 5.263 -4.618c2.926 0 5.307 2.381 5.307 5.307C23.044 11.141 19.271 14.379 17.66 15.762z"/></g></g><g><g><path d="M12.375 18.871c-1.58 -1.475 -3.679 -3.419 -4.711 -4.305l-0.015 -0.012c-0.179 -0.153 -0.381 -0.327 -0.598 -0.517c-0.199 -0.174 -0.501 -0.154 -0.675 0.045c-0.174 0.199 -0.154 0.501 0.045 0.675c0.22 0.193 0.425 0.368 0.605 0.523l0.015 0.012c1.073 0.921 3.393 3.076 4.681 4.278c0.092 0.086 0.209 0.129 0.326 0.129c0.128 0 0.255 -0.051 0.35 -0.152C12.578 19.353 12.568 19.051 12.375 18.871z"/></g></g><g><g><path d="M5.749 12.843c-0.304 -0.295 -0.591 -0.588 -0.854 -0.871c-0.18 -0.194 -0.482 -0.205 -0.676 -0.026c-0.194 0.18 -0.205 0.482 -0.026 0.676c0.274 0.295 0.573 0.601 0.889 0.907c0.093 0.09 0.213 0.135 0.333 0.135c0.125 0 0.249 -0.049 0.343 -0.145C5.943 13.329 5.938 13.027 5.749 12.843z"/></g></g><g/><g/><g/><g/><g/><g/><g/><g/><g/><g/><g/><g/><g/><g/><g/></svg>