<svg version="1.1" id="Capa_1" xmlns="http://www.w3.org/2000/svg" xmlns:xlink="http://www.w3.org/1999/xlink" x="0px" y="0px" viewBox="0 0 24 24" style="enable-background:new 0 0 60 60;" xml:space="preserve" width="24" height="24"><g><g><path x="28" y="11.512" width="4" height="2" d="M11.2 4.605H12.8V5.405H11.2V4.605z"/><path x="25" y="15.512" width="10" height="2" d="M10 6.205H14V7.005H10V6.205z"/><path x="11" y="29.512" width="2" height="2" d="M4.4 11.805H5.2V12.605H4.4V11.805z"/><path x="15" y="29.512" width="2" height="2" d="M6 11.805H6.8V12.605H6V11.805z"/><path x="19" y="29.512" width="2" height="2" d="M7.6 11.805H8.4V12.605H7.6V11.805z"/><path x="23" y="29.512" width="2" height="2" d="M9.2 11.805H10V12.605H9.2V11.805z"/><path x="27" y="29.512" width="2" height="2" d="M10.8 11.805H11.6V12.605H10.8V11.805z"/><path x="31" y="29.512" width="2" height="2" d="M12.4 11.805H13.2V12.605H12.4V11.805z"/><path x="35" y="29.512" width="2" height="2" d="M14 11.805H14.8V12.605H14V11.805z"/><path x="39" y="29.512" width="2" height="2" d="M15.6 11.805H16.4V12.605H15.6V11.805z"/><path x="43" y="29.512" width="2" height="2" d="M17.2 11.805H18V12.605H17.2V11.805z"/><path x="47" y="29.512" width="2" height="2" d="M18.8 11.805H19.6V12.605H18.8V11.805z"/><path x="20" y="43.512" width="2" height="2" d="M8 17.405H8.8V18.205H8V17.405z"/><path d="M12.8 14.605v4.8c0 0.24 0.16 0.4 0.4 0.4h5.6c0.24 0 0.4 -0.16 0.4 -0.4v-4.8c0 -0.24 -0.16 -0.4 -0.4 -0.4H13.2C12.96 14.205 12.8 14.365 12.8 14.605zM13.6 17.405h2v1.6h-2V17.405zM16.4 19.005v-1.6h2v1.6H16.4zM18.4 16.605h-2v-1.6h2V16.605zM15.6 15.005v1.6h-2v-1.6H15.6z"/><path d="M22.4 22.205v-1.2c0 -0.24 -0.16 -0.4 -0.4 -0.4h-0.8v-9.6h1.2c0.24 0 0.4 -0.16 0.4 -0.4v-1.48c0 -0.12 -0.04 -0.24 -0.16 -0.32l-3.04 -2.24v-4.76c0 -0.24 -0.16 -0.4 -0.4 -0.4h-3.2c-0.24 0 -0.4 0.16 -0.4 0.4v1.76l-3.36 -2.48c-0.16 -0.12 -0.32 -0.12 -0.48 0l-10.12 7.52H1.6v0.04l-0.24 0.16c-0.12 0.08 -0.16 0.2 -0.16 0.32v1.48c0 0.24 0.16 0.4 0.4 0.4h1.2v9.6H2c-0.24 0 -0.4 0.16 -0.4 0.4v1.2H0v0.8h2h20h2v-0.8H22.4zM18.8 2.205v0.4h-2.4v-0.4H18.8zM16.4 3.405h2.4v2.56l-2.4 -1.8V3.405zM2 9.405h16v-0.8H2.96L12 1.885l10 7.44v0.88h-1.2H3.2H2V9.405zM3.6 11.005h16.8v9.6H10.4v-5.6h0.8v-0.8h-1.2H5.6h-1.2v0.8h0.8v5.6H3.6V11.005zM6 15.005h3.6v5.6h-3.6V15.005zM2.4 22.205v-0.8h0.8h2.4h4.4h10.8h0.8v0.8H2.4z"/></g></g><g/><g/><g/><g/><g/><g/><g/><g/><g/><g/><g/><g/><g/><g/><g/></svg>