<svg version="1.1" id="Capa_1" xmlns="http://www.w3.org/2000/svg" xmlns:xlink="http://www.w3.org/1999/xlink" x="0px" y="0px" width="24px" height="24px" viewBox="0 0 24 24" style="enable-background:new 0 0 937 937;" xml:space="preserve"><g><path d="M23.198 19.301H14.4c-0.095 0 -0.172 0.077 -0.172 0.172v0.008c0 0.353 -0.287 0.64 -0.64 0.64h-3.33c-0.353 0 -0.64 -0.287 -0.64 -0.64v-0.008c0 -0.095 -0.077 -0.172 -0.172 -0.172H0.648c-0.353 0 -0.64 0.287 -0.64 0.64v0.999c0 0.353 0.287 0.64 0.64 0.64h22.55c0.353 0 0.64 -0.287 0.64 -0.64v-0.999C23.839 19.588 23.552 19.301 23.198 19.301zM21.843 20.446c0 0.174 -0.141 0.318 -0.318 0.318h-1.37c-0.174 0 -0.318 -0.141 -0.318 -0.318v-0.008c0 -0.174 0.141 -0.318 0.318 -0.318h1.37c0.174 0 0.318 0.141 0.318 0.318V20.446z"/><path d="M21.759 2.419h-19.518c-1.235 0 -2.241 1.007 -2.241 2.241v11.477c0 1.235 1.007 2.241 2.241 2.241h19.518c1.235 0 2.241 -1.007 2.241 -2.241v-11.477C24 3.426 22.993 2.419 21.759 2.419zM22.079 16.138c0 0.177 -0.143 0.32 -0.32 0.32h-19.518c-0.177 0 -0.32 -0.143 -0.32 -0.32v-11.477c0 -0.177 0.143 -0.32 0.32 -0.32h19.518c0.177 0 0.32 0.143 0.32 0.32V16.138z"/></g><g/><g/><g/><g/><g/><g/><g/><g/><g/><g/><g/><g/><g/><g/><g/></svg>