<svg version="1.1" id="Capa_1" xmlns="http://www.w3.org/2000/svg" xmlns:xlink="http://www.w3.org/1999/xlink" x="0px" y="0px" viewBox="0 0 24 24" style="enable-background:new 0 0 64 64;" xml:space="preserve" width="24" height="24"><g><path d="M23.625 21h-1.125V7.125h-0.01C22.728 6.811 22.875 6.424 22.875 6v-1.125V0.375c0 -0.207 -0.168 -0.375 -0.375 -0.375H1.5C1.293 0 1.125 0.168 1.125 0.375v4.5v1.125c0 0.424 0.147 0.811 0.385 1.125H1.5v13.875H0.375c-0.207 0 -0.375 0.168 -0.375 0.375v0.75c0 1.034 0.841 1.875 1.875 1.875h20.25c1.034 0 1.875 -0.841 1.875 -1.875v-0.75C24 21.168 23.832 21 23.625 21zM1.875 5.25h2.25v0.75c0 0.62 -0.505 1.125 -1.125 1.125s-1.125 -0.505 -1.125 -1.125V5.25zM16.875 4.5V0.75h2.25v3.75H16.875zM16.125 4.5h-2.25V0.75h2.25V4.5zM13.125 4.5h-2.25V0.75h2.25V4.5zM10.125 4.5h-2.25V0.75h2.25V4.5zM7.125 4.5h-2.25V0.75h2.25V4.5zM4.875 5.25h2.25v0.75c0 0.62 -0.505 1.125 -1.125 1.125s-1.125 -0.505 -1.125 -1.125V5.25zM7.875 5.25h2.25v0.75c0 0.62 -0.505 1.125 -1.125 1.125s-1.125 -0.505 -1.125 -1.125V5.25zM10.875 5.25h2.25v0.75c0 0.62 -0.505 1.125 -1.125 1.125s-1.125 -0.505 -1.125 -1.125V5.25zM13.875 5.25h2.25v0.75c0 0.62 -0.505 1.125 -1.125 1.125s-1.125 -0.505 -1.125 -1.125V5.25zM16.875 5.25h2.25v0.75c0 0.62 -0.505 1.125 -1.125 1.125s-1.125 -0.505 -1.125 -1.125V5.25zM19.875 5.25h2.25v0.75c0 0.62 -0.505 1.125 -1.125 1.125s-1.125 -0.505 -1.125 -1.125V5.25zM22.125 4.5h-2.25V0.75h2.25V4.5zM1.875 0.75h2.25v3.75H1.875V0.75zM2.25 7.716C2.48 7.817 2.733 7.875 3 7.875c0.615 0 1.158 -0.302 1.5 -0.762C4.842 7.573 5.385 7.875 6 7.875s1.158 -0.302 1.5 -0.762C7.842 7.573 8.385 7.875 9 7.875s1.158 -0.302 1.5 -0.762C10.842 7.573 11.385 7.875 12 7.875c0.615 0 1.158 -0.302 1.5 -0.762C13.842 7.573 14.385 7.875 15 7.875s1.158 -0.302 1.5 -0.762C16.842 7.573 17.385 7.875 18 7.875s1.158 -0.302 1.5 -0.762C19.842 7.573 20.385 7.875 21 7.875c0.267 0 0.52 -0.058 0.75 -0.159V21h-0.75V8.625c0 -0.207 -0.168 -0.375 -0.375 -0.375H3.375c-0.207 0 -0.375 0.168 -0.375 0.375v2.625v0.75v9H2.25V7.716zM3.75 12h16.5v9H3.75V12zM3.75 11.25v-2.25h16.5v2.25H3.75zM23.25 22.125c0 0.62 -0.505 1.125 -1.125 1.125H1.875c-0.62 0 -1.125 -0.505 -1.125 -1.125v-0.375h1.125h1.5h17.25h1.5h1.125V22.125z"/><path d="M5.25 17.25h4.875c0.207 0 0.375 -0.168 0.375 -0.375v-3.375c0 -0.207 -0.168 -0.375 -0.375 -0.375H5.25c-0.207 0 -0.375 0.168 -0.375 0.375v3.375C4.875 17.082 5.043 17.25 5.25 17.25zM5.625 13.875h1.875v0.75h0.75v-0.75h1.5v2.625H5.625V13.875z"/><path d="M11.36 13.985C11.289 14.055 11.25 14.151 11.25 14.25v3.75H4.875v0.75h0.882C5.675 18.921 5.625 19.11 5.625 19.313c0 0.724 0.589 1.313 1.313 1.313s1.313 -0.589 1.313 -1.313c0 -0.202 -0.05 -0.392 -0.132 -0.563h1.013C9.05 18.921 9 19.11 9 19.313c0 0.724 0.589 1.313 1.313 1.313s1.313 -0.589 1.313 -1.313c0 -0.202 -0.05 -0.392 -0.132 -0.563H11.625c0.207 0 0.375 -0.168 0.375 -0.375V14.405l1.015 -1.015l-0.53 -0.53L11.36 13.985zM7.5 19.313c0 0.31 -0.252 0.563 -0.563 0.563S6.375 19.623 6.375 19.313s0.252 -0.563 0.563 -0.563S7.5 19.002 7.5 19.313zM10.875 19.313c0 0.31 -0.252 0.563 -0.563 0.563S9.75 19.623 9.75 19.313s0.252 -0.563 0.563 -0.563S10.875 19.002 10.875 19.313z"/><path x="12" y="26" width="2" height="2" d="M4.5 9.75H5.25V10.5H4.5V9.75z"/><path x="16" y="26" width="2" height="2" d="M6 9.75H6.75V10.5H6V9.75z"/><path x="20" y="26" width="2" height="2" d="M7.5 9.75H8.25V10.5H7.5V9.75z"/><path x="24" y="26" width="20" height="2" d="M9 9.75H16.5V10.5H9V9.75z"/><path d="M19.042 18.165c0.089 -0.089 0.128 -0.217 0.102 -0.341c-0.025 -0.123 -0.111 -0.226 -0.228 -0.273l-2.652 -1.061c-0.139 -0.055 -0.298 -0.023 -0.405 0.083c-0.106 0.106 -0.139 0.265 -0.083 0.405l1.061 2.652c0.047 0.117 0.149 0.203 0.273 0.228c0.025 0.005 0.05 0.008 0.075 0.008c0.099 0 0.194 -0.039 0.265 -0.11l0.53 -0.53l1.138 1.138l0.53 -0.53l-1.138 -1.138L19.042 18.165zM17.323 18.823l-0.525 -1.311l1.311 0.525L17.323 18.823z"/><path d="M15 14.625c0.62 0 1.125 0.505 1.125 1.125h0.75c0 -1.034 -0.841 -1.875 -1.875 -1.875s-1.875 0.841 -1.875 1.875s0.841 1.875 1.875 1.875v-0.75c-0.62 0 -1.125 -0.505 -1.125 -1.125S14.38 14.625 15 14.625z"/></g><g/><g/><g/><g/><g/><g/><g/><g/><g/><g/><g/><g/><g/><g/><g/></svg>