<svg version="1.2" baseProfile="tiny" id="Layer_1" xmlns="http://www.w3.org/2000/svg" xmlns:xlink="http://www.w3.org/1999/xlink" x="0px" y="0px" viewBox="0 0 24 24" xml:space="preserve" width="24" height="24"><path id="XMLID_1_" d="M6.806 13.003l6.075 -7.041l-1.584 -0.009L8.531 9.141c-0.159 0.197 -0.413 0.328 -0.684 0.328c-0.497 0 -0.891 -0.403 -0.891 -0.891c0 -0.262 0.112 -0.506 0.3 -0.666l2.972 -3.422c0.169 -0.197 0.413 -0.319 0.684 -0.319l4.303 0c0.319 0 0.6 0.131 0.806 0.328l2.747 2.747l2.278 -2.269c0.159 -0.131 0.366 -0.216 0.591 -0.216c0.506 0 0.919 0.413 0.919 0.919c0 0.225 -0.075 0.422 -0.206 0.581l-1.106 1.116L16.5 21.094h-0.759l4.303 -12.525l-0.431 0.441c-0.834 0.834 -1.5 0.122 -1.5 0.122l-1.678 -1.688l-2.634 3.037l2.409 2.409c0 0 0.506 0.469 0.216 1.406l-1.35 6.019c-0.103 0.525 -0.572 0.919 -1.125 0.919c-0.637 0 -1.144 -0.516 -1.144 -1.144c0 -0.103 0.009 -0.197 0.038 -0.291l1.106 -4.941l-2.737 -2.662l-2.353 2.625c0 0 -0.384 0.469 -1.388 0.431L2.691 15.281c-0.534 0.009 -1.022 -0.356 -1.134 -0.9c-0.141 -0.619 0.244 -1.219 0.862 -1.359c0.094 -0.019 0.197 -0.028 0.291 -0.028L6.806 13.003zM17.391 4.641c0.975 0 1.772 -0.797 1.772 -1.772c0 -0.975 -0.797 -1.772 -1.772 -1.772c-0.975 0 -1.772 0.797 -1.772 1.772C15.619 3.844 16.416 4.641 17.391 4.641zM7.462 20.428l-0.516 -0.553c0 0 -0.506 0.338 -0.778 0.047l-0.009 -0.019L0.262 13.987l0 1.031L5.756 20.531C6.384 21.216 7.462 20.428 7.462 20.428zM22.763 21.066c0 0.591 -0.497 1.059 -1.087 1.059H4.031v0.75h17.644c0.994 0 1.809 -0.797 1.809 -1.8L22.763 21.066zM6.375 8.719H0.281v0.75h6.094V8.719z"/></svg>