<svg version="1.1" id="Capa_1" xmlns="http://www.w3.org/2000/svg" xmlns:xlink="http://www.w3.org/1999/xlink" x="0px" y="0px" viewBox="0 0 24 24" style="enable-background:new 0 0 496.794 496.794;" xml:space="preserve" width="24" height="24"><g><g><path x="298.341" y="5.113" style="fill:#010002;" width="130.176" height="38.872" d="M14.413 0.247H20.702V2.125H14.413V0.247z"/><path x="319.169" y="96.751" style="fill:#010002;" width="130.127" height="38.958" d="M15.419 4.674H21.705V6.556H15.419V4.674z"/><path x="316.986" y="50.601" style="fill:#010002;" width="130.159" height="38.872" d="M15.314 2.445H21.601V4.322H15.314V2.445z"/><path x="292.732" y="143.141" style="fill:#010002;" width="130.212" height="38.89" d="M14.142 6.915H20.432V8.794H14.142V6.915z"/><path style="fill:#010002;" d="M13.096 6.425h-5.708l0.254 -1.735h-2.803L1.664 15.475h7.773l-0.004 8.525h2.815l-0.011 -11.324H6.484l0.538 -3.707h6.077v-0.001c0 0 0.007 0 0.011 0v-2.542C13.105 6.425 13.101 6.425 13.096 6.425z"/><path style="fill:#010002;" d="M6.674 4.061c1.121 0 2.03 -0.909 2.03 -2.031C8.704 0.909 7.794 0 6.674 0c-1.122 0 -2.031 0.909 -2.031 2.03C4.643 3.152 5.552 4.061 6.674 4.061z"/><path style="fill:#010002;" points="192.334,196.937 192.334,237.02 303.231,237.02 303.231,496.794 350.874,496.794 
			350.874,237.02 462.352,237.02 462.352,196.937 		" d="M9.292 9.514L9.292 11.45L14.649 11.45L14.649 24L16.951 24L16.951 11.45L22.336 11.45L22.336 9.514Z"/><path style="fill:#010002;" points="41.992,356.405 100.356,356.405 100.356,496.794 125.463,496.794 125.463,356.405 
			184.101,356.405 184.101,335.268 41.992,335.268 		" d="M2.029 17.218L4.848 17.218L4.848 24L6.061 24L6.061 17.218L8.894 17.218L8.894 16.197L2.029 16.197Z"/></g></g><g/><g/><g/><g/><g/><g/><g/><g/><g/><g/><g/><g/><g/><g/><g/></svg>