<svg version="1.1" id="Capa_1" xmlns="http://www.w3.org/2000/svg" xmlns:xlink="http://www.w3.org/1999/xlink" x="0px" y="0px" viewBox="0 0 24 24" style="enable-background:new 0 0 61.318 61.318;" xml:space="preserve" width="24" height="24"><g><path style="fill:#030104;" d="M16.907 2.712c-0.189 -0.158 -0.505 -0.273 -0.75 -0.273H7.843c-0.245 0 -0.561 0.115 -0.75 0.273L0.218 8.469c-0.13 0.109 -0.207 0.262 -0.216 0.43c-0.01 0.168 0.05 0.327 0.167 0.45l2.61 2.743c0.22 0.232 0.628 0.262 0.878 0.063l1.385 -1.089c0.17 -0.134 0.308 -0.067 0.308 0.149v9.722c0 0.343 0.28 0.624 0.624 0.624h12.054c0.344 0 0.624 -0.281 0.624 -0.624V11.215c0 -0.216 0.138 -0.283 0.308 -0.149l1.385 1.089c0.252 0.199 0.658 0.169 0.879 -0.063l2.61 -2.743c0.117 -0.123 0.177 -0.283 0.167 -0.45c-0.009 -0.168 -0.086 -0.32 -0.217 -0.43C23.782 8.469 16.907 2.712 16.907 2.712zM3.251 11.664c-0.011 -0.001 -0.142 -0.128 -0.292 -0.284l-2.069 -2.152c-0.15 -0.156 -0.144 -0.388 0.014 -0.521c0.157 -0.132 0.406 -0.112 0.556 0.044l2.101 2.19c0.15 0.156 0.146 0.382 -0.009 0.503C3.397 11.567 3.262 11.665 3.251 11.664zM18.027 10.493l0 10.053c0 0.216 -0.175 0.391 -0.391 0.391H6.365c-0.216 0 -0.391 -0.175 -0.391 -0.391V10.493c0 -0.318 -0.216 -0.485 -0.428 -0.485c-0.109 0 -0.221 0.043 -0.322 0.122l-0.93 0.732c-0.17 0.134 -0.276 0.212 -0.236 0.174c0.039 -0.038 -0.05 -0.195 -0.2 -0.351l-2.096 -2.185c-0.15 -0.156 -0.137 -0.395 0.029 -0.533L7.492 3.191c0.076 -0.063 0.253 -0.128 0.351 -0.128H16.157c0.098 0 0.275 0.064 0.351 0.128l5.684 4.738c0.166 0.139 0.18 0.377 0.03 0.533l-2.123 2.213c-0.15 0.156 -0.409 0.173 -0.578 0.04l-0.743 -0.586c-0.101 -0.079 -0.213 -0.122 -0.322 -0.122C18.243 10.007 18.027 10.175 18.027 10.493zM20.884 11.77c0.062 0.059 -0.024 -0.001 -0.194 -0.135l-0.246 -0.193c-0.17 -0.134 -0.186 -0.368 -0.036 -0.524l2.116 -2.206c0.15 -0.156 0.402 -0.173 0.564 -0.038c0.162 0.135 0.172 0.371 0.023 0.528l-2.071 2.176C20.891 11.535 20.821 11.71 20.884 11.77zM15.657 3.556H8.066c-0.134 0 -0.26 0.056 -0.346 0.156c-0.081 0.093 -0.116 0.212 -0.098 0.333c0.178 1.231 2.892 4.901 4.239 4.901c1.346 0 4.061 -3.669 4.238 -4.901c0.018 -0.122 -0.018 -0.24 -0.098 -0.333C15.917 3.613 15.791 3.556 15.657 3.556zM11.863 8.634c-1.193 0 -3.775 -3.554 -3.931 -4.633c-0.006 -0.04 0.01 -0.068 0.025 -0.085c0.026 -0.03 0.067 -0.047 0.11 -0.047h7.59c0.043 0 0.085 0.018 0.11 0.047c0.014 0.017 0.031 0.045 0.025 0.085C15.637 5.08 13.054 8.634 11.863 8.634z"/></g><g/><g/><g/><g/><g/><g/><g/><g/><g/><g/><g/><g/><g/><g/><g/></svg>