<svg version="1.1" id="Layer_1" xmlns="http://www.w3.org/2000/svg" xmlns:xlink="http://www.w3.org/1999/xlink" x="0px" y="0px" viewBox="0 0 24 24" style="enable-background:new 0 0 511.998 511.998;" xml:space="preserve" width="24" height="24"><path style="fill:#D8143A;" d="M20.047 3.954L16.43 0.337C16.214 0.121 15.922 0 15.616 0h-3.574h-3.659c-0.229 0 -0.451 0.068 -0.638 0.193c-0.063 0.042 -0.121 0.09 -0.175 0.144L3.953 3.953c-0.054 0.054 -0.102 0.113 -0.144 0.175c-0.042 0.063 -0.077 0.129 -0.106 0.198c-0.029 0.069 -0.051 0.141 -0.065 0.215c-0.015 0.074 -0.022 0.149 -0.022 0.226v18.082c0 0.199 0.05 0.386 0.139 0.549c0.035 0.065 0.077 0.127 0.124 0.183c0.211 0.256 0.53 0.419 0.888 0.419l7.275 0l7.191 0c0.305 0 0.598 -0.121 0.814 -0.337c0.216 -0.216 0.337 -0.509 0.337 -0.814V4.767C20.384 4.462 20.262 4.169 20.047 3.954z"/><path style="fill:#610012;" d="M12.042 14.902l-2.098 4.114c-0.038 0.077 -0.057 0.157 -0.057 0.238c0 0.281 0.242 0.519 0.528 0.519h0c0.207 0 0.386 -0.111 0.477 -0.295l1.15 -2.249L12.042 14.902L12.042 14.902z"/><path style="fill:#720015;" d="M12.042 5.248c-0.014 0 -0.028 -0.001 -0.042 -0.001c-0.953 0 -1.726 0.773 -1.726 1.726c0 0.953 0.773 1.726 1.726 1.726c0.014 0 0.028 -0.001 0.042 -0.001V5.248z"/><path style="fill:#610012;" d="M12.042 17.23l2.072 -4.052c0.039 -0.078 0.058 -0.159 0.058 -0.247c0 -0.321 -0.282 -0.537 -0.545 -0.537c-0.199 0 -0.365 0.103 -0.446 0.275l-1.139 2.233V17.23z"/><path style="fill:#830018;" d="M12.042 8.698c0 0 0.001 0 0.001 0c0.029 -0.001 0.057 -0.002 0.086 -0.004c0 0 0 0 0 0c0.23 -0.017 0.448 -0.079 0.644 -0.178c0 0 0 0 0 0c0.024 -0.012 0.048 -0.025 0.072 -0.038c0.001 0 0.001 -0.001 0.002 -0.001c0.023 -0.013 0.046 -0.027 0.069 -0.041c0.001 -0.001 0.002 -0.001 0.003 -0.002c0.022 -0.014 0.044 -0.028 0.065 -0.043c0.001 -0.001 0.003 -0.002 0.004 -0.003c0.021 -0.015 0.042 -0.03 0.062 -0.045c0.002 -0.001 0.003 -0.003 0.005 -0.004c0.02 -0.015 0.039 -0.031 0.058 -0.047c0.002 -0.002 0.004 -0.004 0.006 -0.006c0.018 -0.016 0.037 -0.032 0.054 -0.048c0.003 -0.002 0.005 -0.005 0.008 -0.008c0.017 -0.016 0.034 -0.032 0.05 -0.049c0.003 -0.003 0.006 -0.007 0.009 -0.01c0.016 -0.016 0.031 -0.033 0.046 -0.05c0.004 -0.004 0.007 -0.008 0.01 -0.012c0.014 -0.016 0.029 -0.033 0.043 -0.05c0.004 -0.005 0.008 -0.01 0.011 -0.014c0.013 -0.016 0.026 -0.033 0.039 -0.05c0.004 -0.006 0.008 -0.012 0.012 -0.018c0.012 -0.016 0.023 -0.033 0.035 -0.05c0.004 -0.007 0.008 -0.013 0.013 -0.02c0.011 -0.016 0.021 -0.033 0.031 -0.049c0.005 -0.007 0.009 -0.015 0.013 -0.023c0.009 -0.016 0.019 -0.032 0.028 -0.049c0.005 -0.008 0.009 -0.017 0.013 -0.026c0.008 -0.016 0.016 -0.032 0.024 -0.048c0.005 -0.009 0.009 -0.019 0.013 -0.029c0.007 -0.016 0.014 -0.031 0.021 -0.047c0.004 -0.011 0.008 -0.021 0.013 -0.032c0.006 -0.015 0.012 -0.03 0.018 -0.046c0.004 -0.011 0.008 -0.023 0.012 -0.035c0.005 -0.015 0.01 -0.03 0.015 -0.045c0.004 -0.013 0.007 -0.025 0.011 -0.038c0.004 -0.014 0.008 -0.029 0.012 -0.043c0.004 -0.014 0.006 -0.028 0.01 -0.041c0.003 -0.014 0.007 -0.027 0.009 -0.041c0.003 -0.015 0.005 -0.03 0.008 -0.045c0.002 -0.013 0.005 -0.026 0.007 -0.039c0.002 -0.016 0.004 -0.032 0.006 -0.048c0.002 -0.013 0.003 -0.025 0.005 -0.038c0.002 -0.018 0.003 -0.037 0.004 -0.056c0.001 -0.01 0.002 -0.021 0.002 -0.031c0.002 -0.029 0.002 -0.059 0.002 -0.088s-0.001 -0.059 -0.002 -0.088c-0.001 -0.01 -0.002 -0.021 -0.002 -0.031c-0.001 -0.019 -0.002 -0.038 -0.004 -0.056c-0.001 -0.013 -0.003 -0.025 -0.005 -0.037c-0.002 -0.016 -0.004 -0.032 -0.006 -0.048c-0.002 -0.013 -0.005 -0.026 -0.007 -0.039c-0.003 -0.015 -0.005 -0.03 -0.008 -0.045c-0.003 -0.014 -0.006 -0.027 -0.009 -0.041c-0.003 -0.014 -0.006 -0.028 -0.01 -0.042c-0.004 -0.014 -0.008 -0.029 -0.012 -0.043c-0.004 -0.013 -0.007 -0.026 -0.011 -0.038c-0.005 -0.015 -0.01 -0.03 -0.015 -0.044c-0.004 -0.012 -0.008 -0.023 -0.012 -0.035c-0.006 -0.015 -0.012 -0.03 -0.018 -0.046c-0.004 -0.011 -0.008 -0.021 -0.013 -0.032c-0.007 -0.016 -0.014 -0.031 -0.021 -0.047c-0.004 -0.01 -0.009 -0.02 -0.013 -0.029c-0.008 -0.016 -0.016 -0.032 -0.024 -0.048c-0.004 -0.009 -0.009 -0.017 -0.013 -0.026c-0.009 -0.016 -0.018 -0.032 -0.027 -0.048c-0.005 -0.008 -0.009 -0.016 -0.013 -0.023c-0.01 -0.017 -0.02 -0.033 -0.031 -0.049c-0.004 -0.007 -0.009 -0.014 -0.013 -0.021c-0.011 -0.017 -0.023 -0.033 -0.034 -0.049c-0.004 -0.006 -0.008 -0.012 -0.013 -0.018c-0.012 -0.017 -0.025 -0.033 -0.038 -0.05c-0.004 -0.005 -0.008 -0.01 -0.012 -0.015c-0.014 -0.017 -0.028 -0.033 -0.042 -0.05c-0.004 -0.004 -0.007 -0.008 -0.011 -0.013c-0.015 -0.017 -0.03 -0.033 -0.046 -0.049c-0.003 -0.003 -0.006 -0.007 -0.01 -0.01c-0.016 -0.017 -0.033 -0.033 -0.05 -0.048c-0.003 -0.003 -0.006 -0.006 -0.009 -0.008c-0.018 -0.016 -0.035 -0.032 -0.053 -0.047c-0.002 -0.002 -0.005 -0.004 -0.007 -0.006c-0.019 -0.016 -0.038 -0.031 -0.057 -0.046c-0.002 -0.002 -0.004 -0.003 -0.006 -0.005c-0.02 -0.015 -0.041 -0.03 -0.061 -0.045c-0.002 -0.001 -0.003 -0.002 -0.004 -0.003c-0.021 -0.015 -0.043 -0.029 -0.065 -0.043c-0.001 -0.001 -0.002 -0.001 -0.003 -0.002c-0.022 -0.014 -0.045 -0.028 -0.068 -0.041c-0.001 0 -0.001 -0.001 -0.002 -0.001c-0.024 -0.013 -0.048 -0.026 -0.072 -0.038c0 0 0 0 0 0c-0.221 -0.111 -0.469 -0.176 -0.731 -0.182v3.45H12.042z"/><path style="fill:#B4002B;" d="M9.409 15.564c0.118 0 0.21 -0.023 0.257 -0.066c0.043 -0.039 0.065 -0.111 0.065 -0.214v-1.292c0 -0.153 -0.024 -0.28 -0.322 -0.28c-0.265 0 -0.314 0.094 -0.314 0.28l0 1.292C9.096 15.474 9.143 15.564 9.409 15.564z"/><path style="fill:#610012;" d="M9.41 16.561h0h0c0.391 0 0.709 -0.097 0.944 -0.289c0.19 -0.155 0.417 -0.452 0.417 -0.987v-1.292c0 -0.799 -0.509 -1.276 -1.361 -1.276c-0.852 0 -1.36 0.477 -1.36 1.276v1.292C8.049 16.084 8.558 16.561 9.41 16.561zM9.096 13.993c0 -0.185 0.048 -0.28 0.314 -0.28c0.298 0 0.322 0.127 0.322 0.28v1.292c0 0.103 -0.022 0.175 -0.065 0.214c-0.047 0.042 -0.139 0.066 -0.257 0.066c-0.267 0 -0.313 -0.09 -0.313 -0.28L9.096 13.993z"/><path style="fill:#D8143A;" d="M14.59 18.573c0.118 0 0.209 -0.023 0.257 -0.066c0.043 -0.039 0.065 -0.111 0.065 -0.214l0 -1.292c0 -0.153 -0.024 -0.28 -0.322 -0.28h0c-0.116 0 -0.205 0.023 -0.25 0.064c-0.052 0.048 -0.063 0.144 -0.063 0.216v1.292C14.277 18.483 14.324 18.573 14.59 18.573z"/><path style="fill:#610012;" d="M13.23 17.002v1.292c0 0.799 0.509 1.276 1.361 1.276c0.852 0 1.36 -0.477 1.36 -1.276v-1.292c0 -0.799 -0.509 -1.276 -1.36 -1.276C13.738 15.726 13.23 16.203 13.23 17.002zM14.277 17.002c0 -0.072 0.011 -0.168 0.063 -0.216c0.045 -0.041 0.134 -0.064 0.25 -0.064h0c0.298 0 0.322 0.127 0.322 0.28l0 1.292c0 0.103 -0.022 0.175 -0.065 0.214c-0.047 0.042 -0.139 0.066 -0.257 0.066c-0.267 0 -0.314 -0.09 -0.314 -0.279v-1.292H14.277z"/><g><path style="fill:#B4002B;" d="M12.042 24V17.23l-1.15 2.249c-0.091 0.183 -0.27 0.294 -0.477 0.295h0c-0.286 0 -0.528 -0.238 -0.528 -0.519c0 -0.081 0.019 -0.161 0.057 -0.238l2.098 -4.114V8.698c-0.014 0 -0.028 0.001 -0.042 0.001c-0.953 0 -1.726 -0.773 -1.726 -1.726c0 -0.953 0.773 -1.726 1.726 -1.726c0.014 0 0.028 0.001 0.042 0.001V0h-3.659c-0.305 0 -0.598 0.121 -0.814 0.337L3.953 3.953c-0.216 0.216 -0.337 0.508 -0.337 0.814v18.082c0 0.636 0.515 1.151 1.151 1.151L12.042 24zM8.049 13.993c0 -0.799 0.508 -1.276 1.36 -1.276c0.853 0 1.361 0.477 1.361 1.276v1.292c0 0.535 -0.227 0.832 -0.417 0.987c-0.235 0.192 -0.553 0.289 -0.944 0.289h0h0c-0.852 0 -1.36 -0.477 -1.36 -1.276v-1.292H8.049z"/><path style="fill:#B4002B;" d="M12.042 5.248c-0.014 0 -0.028 -0.001 -0.042 -0.001C12.014 5.247 12.028 5.248 12.042 5.248L12.042 5.248z"/><path style="fill:#B4002B;" d="M12.042 14.902l-2.098 4.114L12.042 14.902z"/><path style="fill:#B4002B;" points="232.361,415.549 256.903,367.567 256.903,367.567 	" d="M10.892 19.479L12.042 17.23L12.042 17.23Z"/></g><g><path style="fill:#D8143A;" d="M13.298 5.837c0.014 0.016 0.028 0.033 0.042 0.05C13.327 5.869 13.313 5.853 13.298 5.837z"/><path style="fill:#D8143A;" d="M13.605 6.339c0.006 0.015 0.012 0.03 0.018 0.046C13.618 6.369 13.611 6.354 13.605 6.339z"/><path style="fill:#D8143A;" d="M13.635 6.42c0.005 0.015 0.01 0.03 0.015 0.044C13.645 6.449 13.64 6.434 13.635 6.42z"/><path style="fill:#D8143A;" d="M13.572 6.261c0.007 0.015 0.014 0.031 0.021 0.047C13.586 6.291 13.579 6.276 13.572 6.261z"/><path style="fill:#D8143A;" d="M13.661 6.502c0.004 0.014 0.008 0.029 0.012 0.043C13.669 6.531 13.665 6.517 13.661 6.502z"/><path style="fill:#D8143A;" d="M13.494 6.11c0.009 0.016 0.018 0.032 0.027 0.048C13.513 6.142 13.504 6.126 13.494 6.11z"/><path style="fill:#D8143A;" d="M13.535 6.184c0.008 0.016 0.016 0.032 0.024 0.048C13.551 6.216 13.543 6.2 13.535 6.184z"/><path style="fill:#D8143A;" d="M13.722 6.854c0.001 0.01 0.002 0.02 0.002 0.031C13.723 6.875 13.722 6.864 13.722 6.854z"/><path style="fill:#D8143A;" d="M13.724 7.061c-0.001 0.01 -0.002 0.021 -0.002 0.031C13.722 7.082 13.723 7.072 13.724 7.061z"/><path style="fill:#D8143A;" d="M13.713 6.761c0.002 0.013 0.003 0.025 0.005 0.037C13.716 6.786 13.714 6.773 13.713 6.761z"/><path style="fill:#D8143A;" d="M13.7 6.673c0.002 0.013 0.005 0.026 0.007 0.039C13.705 6.699 13.702 6.686 13.7 6.673z"/><path style="fill:#D8143A;" d="M13.682 6.587c0.003 0.014 0.007 0.027 0.009 0.041C13.689 6.614 13.685 6.601 13.682 6.587z"/><path style="fill:#D8143A;" d="M12.848 5.47c0.023 0.013 0.046 0.027 0.068 0.041C12.894 5.496 12.871 5.483 12.848 5.47z"/><path style="fill:#D8143A;" d="M13.45 6.038c0.01 0.016 0.021 0.032 0.031 0.049C13.471 6.07 13.461 6.054 13.45 6.038z"/><path style="fill:#D8143A;" d="M13.056 5.608c0.02 0.015 0.039 0.03 0.057 0.046C13.094 5.638 13.075 5.623 13.056 5.608z"/><path style="fill:#D8143A;" d="M12.988 5.558c0.021 0.014 0.041 0.029 0.061 0.045C13.03 5.588 13.009 5.573 12.988 5.558z"/><path style="fill:#D8143A;" d="M13.717 7.148c-0.001 0.013 -0.003 0.025 -0.005 0.038C13.714 7.173 13.716 7.161 13.717 7.148z"/><path style="fill:#D8143A;" d="M12.919 5.512c0.022 0.014 0.044 0.028 0.065 0.043C12.963 5.541 12.941 5.526 12.919 5.512z"/><path style="fill:#D8143A;" d="M13.12 5.661c0.018 0.016 0.036 0.031 0.053 0.047C13.156 5.692 13.138 5.676 13.12 5.661z"/><path style="fill:#D8143A;" d="M13.403 5.968c0.011 0.016 0.023 0.032 0.034 0.049C13.426 6.001 13.415 5.984 13.403 5.968z"/><path style="fill:#D8143A;" d="M13.352 5.901c0.013 0.016 0.026 0.033 0.038 0.05C13.378 5.934 13.365 5.917 13.352 5.901z"/><path style="fill:#D8143A;" d="M13.183 5.716c0.017 0.016 0.033 0.032 0.05 0.048C13.216 5.748 13.199 5.732 13.183 5.716z"/><path style="fill:#D8143A;" d="M13.242 5.775c0.016 0.016 0.031 0.032 0.046 0.049C13.273 5.807 13.257 5.791 13.242 5.775z"/><path style="fill:#D8143A;" d="M13.174 8.238c-0.018 0.017 -0.036 0.033 -0.054 0.048C13.138 8.271 13.156 8.255 13.174 8.238z"/><path style="fill:#D8143A;" d="M13.288 8.122c-0.015 0.017 -0.031 0.033 -0.046 0.05C13.257 8.156 13.273 8.139 13.288 8.122z"/><path style="fill:#D8143A;" d="M13.113 8.292c-0.019 0.016 -0.038 0.032 -0.058 0.047C13.075 8.324 13.094 8.308 13.113 8.292z"/><path style="fill:#D8143A;" d="M12.984 8.391c-0.021 0.015 -0.043 0.029 -0.065 0.043C12.941 8.42 12.963 8.406 12.984 8.391z"/><path style="fill:#D8143A;" d="M13.232 8.182c-0.016 0.017 -0.033 0.033 -0.05 0.049C13.199 8.215 13.216 8.198 13.232 8.182z"/><path style="fill:#D8143A;" d="M12.774 5.43c0.024 0.012 0.048 0.025 0.072 0.038C12.822 5.455 12.798 5.443 12.774 5.43z"/><path style="fill:#D8143A;" d="M13.05 8.343c-0.02 0.016 -0.041 0.031 -0.062 0.045C13.009 8.373 13.03 8.358 13.05 8.343z"/><path style="fill:#D8143A;" d="M12.916 8.436c-0.023 0.014 -0.046 0.028 -0.069 0.041C12.871 8.464 12.894 8.45 12.916 8.436z"/><path style="fill:#D8143A;" d="M12.774 5.43c-0.221 -0.111 -0.469 -0.176 -0.731 -0.182l0 0C12.305 5.255 12.553 5.319 12.774 5.43z"/><path style="fill:#D8143A;" d="M12.129 8.694c-0.028 0.002 -0.057 0.004 -0.086 0.004C12.072 8.698 12.101 8.696 12.129 8.694z"/><path style="fill:#D8143A;" d="M12.846 8.478c-0.024 0.013 -0.048 0.026 -0.072 0.038C12.799 8.504 12.823 8.491 12.846 8.478z"/><path style="fill:#D8143A;" d="M12.774 8.516c-0.196 0.099 -0.414 0.161 -0.644 0.178C12.36 8.677 12.578 8.615 12.774 8.516z"/><path style="fill:#D8143A;" d="M13.522 7.788c-0.009 0.017 -0.018 0.033 -0.028 0.049C13.504 7.821 13.513 7.805 13.522 7.788z"/><path style="fill:#D8143A;" d="M13.559 7.715c-0.008 0.016 -0.016 0.032 -0.024 0.048C13.543 7.747 13.551 7.731 13.559 7.715z"/><path style="fill:#D8143A;" d="M13.623 7.562c-0.006 0.015 -0.012 0.031 -0.018 0.046C13.611 7.592 13.618 7.577 13.623 7.562z"/><path style="fill:#D8143A;" d="M13.65 7.482c-0.005 0.015 -0.01 0.03 -0.015 0.045C13.64 7.512 13.645 7.497 13.65 7.482z"/><path style="fill:#D8143A;" d="M13.692 7.318c-0.003 0.014 -0.006 0.028 -0.009 0.041C13.685 7.346 13.689 7.332 13.692 7.318z"/><path style="fill:#D8143A;" d="M13.673 7.401c-0.004 0.014 -0.008 0.029 -0.012 0.043C13.665 7.43 13.669 7.416 13.673 7.401z"/><path style="fill:#D8143A;" d="M13.437 7.929c-0.011 0.017 -0.023 0.033 -0.035 0.05C13.414 7.962 13.426 7.946 13.437 7.929z"/><path style="fill:#D8143A;" d="M13.706 7.234c-0.002 0.013 -0.005 0.026 -0.007 0.039C13.702 7.26 13.705 7.247 13.706 7.234z"/><path style="fill:#D8143A;" d="M13.39 7.996c-0.012 0.017 -0.025 0.034 -0.039 0.05C13.365 8.029 13.378 8.013 13.39 7.996z"/><path style="fill:#D8143A;" d="M13.34 8.06c-0.014 0.017 -0.028 0.034 -0.043 0.05C13.313 8.094 13.327 8.077 13.34 8.06z"/><path style="fill:#D8143A;" d="M13.481 7.86c-0.01 0.017 -0.021 0.033 -0.031 0.049C13.461 7.893 13.471 7.876 13.481 7.86z"/><path style="fill:#D8143A;" d="M13.593 7.639c-0.007 0.016 -0.014 0.031 -0.021 0.047C13.579 7.671 13.586 7.655 13.593 7.639z"/><path style="fill:#D8143A;" points="256.903,367.567 256.903,367.567 301.114,281.132 	" d="M12.042 17.23L12.042 17.23L14.115 13.178Z"/><path style="fill:#D8143A;" points="281.202,270.273 256.903,317.916 256.903,317.916 	" d="M13.181 12.669L12.042 14.902L12.042 14.902Z"/></g><g/><g/><g/><g/><g/><g/><g/><g/><g/><g/><g/><g/><g/><g/><g/></svg>