<svg version="1.1" id="Layer_1" xmlns="http://www.w3.org/2000/svg" xmlns:xlink="http://www.w3.org/1999/xlink" x="0px" y="0px" viewBox="0 0 24 24" style="enable-background:new 0 0 503.607 503.607;" xml:space="preserve" width="24" height="24"><g transform="translate(1 1)"><path style="fill:#FFDD09;" d="M20.747 13.552c0 -5.52 -3.92 -10 -8.8 -10S3.147 8.032 3.147 13.552s3.96 10 8.8 10S20.747 19.072 20.747 13.552"/><path style="fill:#FFFFFF;" d="M3.147 13.552c0 -5.52 3.96 -10 8.8 -10c-5.52 0 -10 4.48 -10 10s4.48 10 10 10C7.107 23.552 3.147 19.072 3.147 13.552"/><path style="fill:#FD9808;" d="M11.947 3.552c4.88 0 8.8 4.48 8.8 10s-3.92 10 -8.8 10c5.52 0 10 -4.48 10 -10S17.467 3.552 11.947 3.552"/><path style="fill:#54C9FD;" points="208.731,40.967 292.666,40.967 292.666,7.393 208.731,7.393 	" d="M9.947 1.952L13.947 1.952L13.947 0.352L9.947 0.352Z"/><path style="fill:#33A9F8;" d="M11.947 3.552c0.28 0 0.52 0 0.8 0.04V1.952h-1.6V3.592C11.427 3.592 11.667 3.552 11.947 3.552"/><path style="fill:#54C9FD;" d="M4.867 4.232l-2.28 2.28l-0.32 -0.32c-0.44 -0.44 -0.44 -1.2 0 -1.64l0.64 -0.64c0.44 -0.44 1.2 -0.44 1.64 0L4.867 4.232z"/><path style="fill:#33A9F8;" d="M4.867 6.512c0.2 -0.2 0.4 -0.36 0.6 -0.56l-1.16 -1.16l-1.12 1.12l1.16 1.16C4.507 6.872 4.667 6.672 4.867 6.512"/><path style="fill:#54C9FD;" d="M21.267 6.512L18.987 4.232l0.32 -0.32c0.44 -0.44 1.2 -0.44 1.64 0l0.6 0.6c0.44 0.44 0.44 1.2 0 1.64L21.267 6.512z"/><path style="fill:#33A9F8;" d="M19.027 6.512c0.2 0.2 0.36 0.4 0.56 0.6l1.16 -1.16L19.627 4.832l-1.2 1.12C18.627 6.112 18.827 6.312 19.027 6.512"/><path style="fill:#54C9FD;" d="M13.147 13.552c0 -0.68 -0.52 -1.2 -1.2 -1.2c-0.68 0 -1.2 0.52 -1.2 1.2s0.52 1.2 1.2 1.2C12.627 14.752 13.147 14.232 13.147 13.552"/><path d="M11.947 23.952c-5.72 0 -10.4 -4.64 -10.4 -10.4c0 -5.72 4.68 -10.4 10.4 -10.4s10.4 4.68 10.4 10.4C22.347 19.312 17.667 23.952 11.947 23.952zM11.947 3.952c-5.28 0 -9.6 4.32 -9.6 9.6S6.667 23.152 11.947 23.152s9.6 -4.32 9.6 -9.6S17.227 3.952 11.947 3.952z"/><path d="M13.947 2.352h-4c-0.24 0 -0.4 -0.16 -0.4 -0.4V0.352c0 -0.24 0.16 -0.4 0.4 -0.4h4c0.24 0 0.4 0.16 0.4 0.4v1.6C14.347 2.192 14.187 2.352 13.947 2.352zM10.347 1.552h3.2V0.752h-3.2V1.552z"/><path d="M12.747 3.992C12.747 3.992 12.707 3.992 12.747 3.992c-0.6 -0.04 -1 -0.04 -1.56 0c-0.12 0 -0.24 -0.04 -0.32 -0.12c-0.08 -0.04 -0.12 -0.16 -0.12 -0.28V1.952c0 -0.24 0.16 -0.4 0.4 -0.4h1.6c0.24 0 0.4 0.16 0.4 0.4V3.592c0 0.12 -0.04 0.2 -0.12 0.28C12.947 3.952 12.867 3.992 12.747 3.992zM11.947 3.152c0.12 0 0.28 0 0.4 0V2.352h-0.8v0.8C11.667 3.152 11.827 3.152 11.947 3.152z"/><path d="M2.627 6.912c-0.12 0 -0.2 -0.04 -0.28 -0.12l-0.32 -0.32c-0.6 -0.6 -0.6 -1.6 0 -2.2l0.64 -0.64c0.6 -0.6 1.6 -0.6 2.2 0l0.28 0.32c0.16 0.16 0.16 0.4 0 0.56l-2.28 2.28C2.827 6.872 2.707 6.912 2.627 6.912zM3.747 3.992c-0.2 0 -0.4 0.08 -0.52 0.24l-0.64 0.64c-0.28 0.28 -0.28 0.76 0 1.08l0.04 0.04l1.68 -1.68l-0.04 -0.12C4.147 4.072 3.947 3.992 3.747 3.992z"/><path d="M4.347 7.472c-0.12 0 -0.2 -0.04 -0.28 -0.12l-1.16 -1.16c-0.16 -0.16 -0.16 -0.4 0 -0.56l1.12 -1.12c0.16 -0.16 0.4 -0.16 0.56 0l1.16 1.16c0.08 0.08 0.12 0.2 0.12 0.28c0 0.12 -0.04 0.2 -0.16 0.28c-0.2 0.2 -0.4 0.36 -0.56 0.52c-0.16 0.16 -0.32 0.36 -0.52 0.56C4.547 7.432 4.467 7.472 4.347 7.472L4.347 7.472zM3.747 5.912l0.56 0.56c0.08 -0.12 0.2 -0.2 0.28 -0.28c0.08 -0.08 0.2 -0.2 0.28 -0.28l-0.56 -0.56L3.747 5.912z"/><path d="M21.267 6.912c-0.12 0 -0.2 -0.04 -0.28 -0.12l-2.24 -2.28c-0.16 -0.16 -0.16 -0.4 0 -0.56l0.32 -0.32c0.6 -0.6 1.6 -0.6 2.24 0l0.6 0.6c0.6 0.6 0.6 1.6 0 2.24l-0.36 0.32C21.467 6.872 21.387 6.912 21.267 6.912zM19.587 4.232l1.68 1.68l0.04 -0.04c0.32 -0.32 0.32 -0.8 0 -1.08l-0.6 -0.6C20.387 3.912 19.907 3.912 19.587 4.232L19.587 4.232z"/><path d="M19.547 7.472L19.547 7.472c-0.12 0 -0.24 -0.04 -0.32 -0.16c-0.2 -0.2 -0.36 -0.4 -0.52 -0.56c-0.16 -0.16 -0.36 -0.32 -0.56 -0.52c-0.08 -0.08 -0.12 -0.16 -0.16 -0.28c0 -0.12 0.04 -0.2 0.12 -0.28l1.16 -1.16c0.16 -0.16 0.4 -0.16 0.56 0l1.12 1.12c0.08 0.08 0.12 0.16 0.12 0.28s-0.04 0.2 -0.12 0.28l-1.16 1.16C19.747 7.432 19.667 7.472 19.547 7.472zM19.027 5.952c0.12 0.08 0.2 0.2 0.28 0.28c0.08 0.08 0.2 0.2 0.28 0.28l0.56 -0.56l-0.56 -0.56L19.027 5.952z"/><path id="SVGCleanerId_0" d="M11.947 15.152c-0.88 0 -1.6 -0.72 -1.6 -1.6s0.72 -1.6 1.6 -1.6s1.6 0.72 1.6 1.6S12.827 15.152 11.947 15.152zM11.947 12.752c-0.44 0 -0.8 0.36 -0.8 0.8c0 0.44 0.36 0.8 0.8 0.8c0.44 0 0.8 -0.36 0.8 -0.8C12.747 13.112 12.387 12.752 11.947 12.752z"/><path d="M11.947 12.752c-0.24 0 -0.4 -0.16 -0.4 -0.4V6.752c0 -0.24 0.16 -0.4 0.4 -0.4c0.24 0 0.4 0.16 0.4 0.4v5.6C12.347 12.592 12.187 12.752 11.947 12.752z"/><path d="M11.947 5.152c-0.24 0 -0.4 -0.16 -0.4 -0.4v-1.2c0 -0.24 0.16 -0.4 0.4 -0.4c0.24 0 0.4 0.16 0.4 0.4v1.2C12.347 4.992 12.187 5.152 11.947 5.152z"/><path d="M11.947 23.952c-0.24 0 -0.4 -0.16 -0.4 -0.4v-1.2c0 -0.24 0.16 -0.4 0.4 -0.4c0.24 0 0.4 0.16 0.4 0.4v1.2C12.347 23.792 12.187 23.952 11.947 23.952z"/><path d="M21.947 13.952h-1.2c-0.24 0 -0.4 -0.16 -0.4 -0.4c0 -0.24 0.16 -0.4 0.4 -0.4h1.2c0.24 0 0.4 0.16 0.4 0.4C22.347 13.792 22.187 13.952 21.947 13.952z"/><path d="M3.147 13.952h-1.2c-0.24 0 -0.4 -0.16 -0.4 -0.4c0 -0.24 0.16 -0.4 0.4 -0.4h1.2c0.24 0 0.4 0.16 0.4 0.4C3.547 13.792 3.387 13.952 3.147 13.952z"/><path d="M17.947 7.952c-0.12 0 -0.2 -0.04 -0.28 -0.12c-0.16 -0.16 -0.16 -0.4 0 -0.56l1.08 -1.08c0.16 -0.16 0.4 -0.16 0.56 0s0.16 0.4 0 0.56l-1.08 1.08C18.147 7.912 18.067 7.952 17.947 7.952z"/><path d="M4.867 21.032c-0.12 0 -0.2 -0.04 -0.28 -0.12c-0.16 -0.16 -0.16 -0.4 0 -0.56l1.08 -1.08c0.16 -0.16 0.4 -0.16 0.56 0s0.16 0.4 0 0.56l-1.08 1.08C5.067 20.992 4.987 21.032 4.867 21.032z"/><path d="M19.027 21.032c-0.12 0 -0.2 -0.04 -0.28 -0.12l-1.08 -1.08c-0.16 -0.16 -0.16 -0.4 0 -0.56s0.4 -0.16 0.56 0l1.08 1.08c0.16 0.16 0.16 0.4 0 0.56C19.227 20.992 19.107 21.032 19.027 21.032z"/><path d="M5.947 7.952c-0.12 0 -0.2 -0.04 -0.28 -0.12l-1.08 -1.08c-0.16 -0.16 -0.16 -0.4 0 -0.56c0.16 -0.16 0.4 -0.16 0.56 0l1.08 1.08c0.16 0.16 0.16 0.4 0 0.56C6.147 7.912 6.067 7.952 5.947 7.952z"/><g><path id="SVGCleanerId_0_1_" d="M11.947 15.152c-0.88 0 -1.6 -0.72 -1.6 -1.6s0.72 -1.6 1.6 -1.6s1.6 0.72 1.6 1.6S12.827 15.152 11.947 15.152zM11.947 12.752c-0.44 0 -0.8 0.36 -0.8 0.8c0 0.44 0.36 0.8 0.8 0.8c0.44 0 0.8 -0.36 0.8 -0.8C12.747 13.112 12.387 12.752 11.947 12.752z"/></g></g><g/><g/><g/><g/><g/><g/><g/><g/><g/><g/><g/><g/><g/><g/><g/></svg>