<svg width="20" height="21" viewBox="0 0 20 21" fill="none" xmlns="http://www.w3.org/2000/svg">
<path fill-rule="evenodd" clip-rule="evenodd" d="M15.0968 1.75002C14.9792 1.75069 14.8215 1.76511 14.5457 1.79159L8.44479 2.37717C8.24214 2.39662 8.12902 2.40792 8.04504 2.42211C7.999 2.42989 7.97881 2.43601 7.97265 2.4382C7.9617 2.4439 7.95136 2.45048 7.94174 2.45785C7.93714 2.46261 7.92364 2.47795 7.89864 2.51443C7.8512 2.58367 7.79429 2.68035 7.69239 2.85508L2.66927 11.4683C2.30112 12.0996 2.05646 12.5212 1.90528 12.8602C1.75984 13.1864 1.74043 13.3536 1.75334 13.4752C1.76599 13.5943 1.79752 13.7109 1.84689 13.8207C1.89767 13.9336 2.00009 14.0699 2.29182 14.2812C2.5946 14.5004 3.02005 14.7448 3.65748 15.1091L9.30612 18.3377C9.94348 18.702 10.37 18.9446 10.7134 19.0947C11.0438 19.2391 11.2167 19.2599 11.3451 19.2466C11.4678 19.2338 11.5876 19.202 11.7 19.1525C11.8168 19.101 11.9548 18.9985 12.1673 18.7109C12.3884 18.4116 12.635 17.9909 13.0031 17.3597L18.0262 8.74653C18.1281 8.57177 18.1842 8.47468 18.221 8.39947C18.2396 8.36144 18.2464 8.34246 18.2484 8.33592C18.2497 8.32554 18.2503 8.31508 18.2499 8.30465C18.2485 8.29794 18.2437 8.27847 18.2289 8.23905C18.1996 8.16074 18.1533 8.05881 18.0689 7.87511L15.5307 2.35167C15.4158 2.10166 15.35 1.96011 15.2922 1.85983C15.2623 1.80786 15.2449 1.78594 15.2387 1.77892C15.2263 1.76993 15.2128 1.76222 15.1984 1.756C15.1893 1.75405 15.1606 1.74966 15.0968 1.75002ZM18.2504 8.30742C18.2503 8.30731 18.25 8.30585 18.2499 8.30465L18.2504 8.30742ZM18.2491 8.33322C18.2491 8.33314 18.2488 8.33448 18.2484 8.33592L18.2491 8.33322ZM7.97047 2.43908C7.97042 2.43907 7.97125 2.43871 7.97265 2.4382L7.97047 2.43908ZM15.0883 0.250046C15.3026 0.248836 15.5352 0.270995 15.7745 0.371046C15.9046 0.425415 16.0275 0.495641 16.1404 0.580203C16.3487 0.736162 16.4854 0.925871 16.5923 1.1116C16.6885 1.2788 16.7829 1.48427 16.8822 1.70039L19.4319 7.24877C19.4425 7.2718 19.4532 7.29505 19.4641 7.31852C19.5912 7.59286 19.7324 7.89753 19.7481 8.23126C19.7532 8.33942 19.7479 8.4478 19.7323 8.55492C19.6841 8.8854 19.5141 9.17492 19.3608 9.43585C19.3477 9.45818 19.3347 9.48029 19.3219 9.5022L14.2783 18.1506C13.9361 18.7373 13.6491 19.2295 13.3737 19.6023C13.0842 19.9942 12.7576 20.3256 12.305 20.5251C12.0496 20.6376 11.7781 20.7096 11.5004 20.7385C11.0089 20.7897 10.5603 20.6647 10.1128 20.4692C9.68661 20.283 9.18993 19.999 8.59692 19.6601L2.87781 16.3912C2.28492 16.0523 1.78818 15.7684 1.41206 15.4961C1.01744 15.2103 0.681616 14.8867 0.478869 14.4359C0.364484 14.1816 0.291163 13.9108 0.261727 13.6335C0.209482 13.1414 0.337335 12.6934 0.53528 12.2494C0.723706 11.8268 1.01078 11.3346 1.35289 10.748L6.39664 2.09942C6.40936 2.07761 6.42214 2.05554 6.43503 2.03327C6.58706 1.77077 6.75476 1.4812 7.01819 1.27586C7.10341 1.20944 7.19471 1.15127 7.29085 1.1021C7.58718 0.950538 7.92042 0.919545 8.22479 0.891236C8.25057 0.888838 8.27615 0.88646 8.30147 0.884029L14.4295 0.295847C14.6686 0.272874 14.8948 0.251139 15.0883 0.250046ZM12.4523 6.51288C11.8891 6.19097 11.1724 6.38499 10.8518 6.93472C10.5338 7.47995 10.7194 8.18064 11.2783 8.50006C11.8415 8.82197 12.5582 8.62795 12.8788 8.07823C13.1968 7.53299 13.0112 6.8323 12.4523 6.51288ZM9.55605 6.17905C10.295 4.91205 11.9248 4.48361 13.1967 5.2106C14.4729 5.94006 14.916 7.5624 14.1745 8.83389C13.4356 10.1009 11.8058 10.5293 10.5339 9.80235C9.25768 9.07288 8.81454 7.45054 9.55605 6.17905Z" fill="#5D6B81"/>
</svg>
