<svg width="18" height="20" viewBox="0 0 18 20" fill="none" xmlns="http://www.w3.org/2000/svg">
<path d="M11.4817 1.40586C11.8639 0.951072 12.4853 0.845325 12.9546 1.12539C13.6041 1.51304 14.3147 1.97266 14.8012 2.3814C15.2788 2.7827 15.8288 3.3775 16.3012 3.92912C16.6518 4.33862 16.6538 4.96212 16.2737 5.41455L6.11877 17.5004C5.78503 17.8976 5.33297 18.1612 4.83825 18.2433C4.11668 18.363 3.15009 18.5078 2.31994 18.5799C1.90241 18.6161 1.54108 18.632 1.27127 18.6214C1.20638 18.6189 1.15158 18.615 1.10613 18.6104C1.09373 18.5664 1.08043 18.5131 1.06675 18.4496C1.00986 18.1856 0.963211 17.827 0.926972 17.4095C0.85492 16.5793 0.830935 15.6022 0.824521 14.8708C0.820124 14.3693 1.00179 13.8786 1.33553 13.4814L11.4817 1.40586ZM0.956471 18.5847C0.956613 18.5846 0.959404 18.5854 0.9644 18.5874C0.958825 18.5858 0.956331 18.5848 0.956471 18.5847ZM1.15321 18.746C1.15597 18.7506 1.15723 18.7532 1.15716 18.7534C1.1571 18.7535 1.15572 18.7512 1.15321 18.746Z" stroke="#222628" stroke-width="1.5"/>
</svg>
